<svg width="26" height="26" viewBox="0 0 26 26" fill="none" xmlns="http://www.w3.org/2000/svg">
<rect x="0.5" y="0.5" width="25" height="25" stroke="#A37C4D"/>
<path d="M11.7035 4.74967L5.66629 10.7868C5.40974 11.0432 5.23501 11.3699 5.16419 11.7256C5.09338 12.0814 5.12966 12.4501 5.26845 12.7852L5.33079 12.9181C5.48452 13.2185 5.71821 13.4707 6.00611 13.6469C6.29401 13.823 6.62495 13.9163 6.96245 13.9163H9.33295V20.333C9.33295 20.8192 9.52611 21.2855 9.86992 21.6294C10.2137 21.9732 10.6801 22.1663 11.1663 22.1663H14.833L14.9705 22.1617C15.4317 22.1271 15.8627 21.9193 16.1772 21.5802C16.4917 21.241 16.6664 20.7955 16.6663 20.333L16.6654 13.9163H19.0368C19.3993 13.9163 19.7537 13.8087 20.0551 13.6072C20.3565 13.4058 20.5915 13.1195 20.7302 12.7845C20.8689 12.4496 20.9052 12.081 20.8345 11.7254C20.7638 11.3699 20.5893 11.0432 20.333 10.7868L14.2958 4.74967C13.952 4.40597 13.4858 4.21289 12.9996 4.21289C12.5135 4.21289 12.0473 4.40597 11.7035 4.74967Z" stroke="#A37C4D" stroke-linecap="round" stroke-linejoin="round"/>
</svg>
