<svg width="19" height="19" viewBox="0 0 19 19" fill="none" xmlns="http://www.w3.org/2000/svg">
<path d="M9.49998 12.6667C9.3958 12.6673 9.29251 12.6473 9.19606 12.6079C9.0996 12.5685 9.01187 12.5104 8.9379 12.4371L4.1879 7.68707C4.03883 7.53799 3.95508 7.33581 3.95508 7.12498C3.95508 6.91416 4.03883 6.71197 4.1879 6.5629C4.33697 6.41383 4.53916 6.33008 4.74998 6.33008C4.96081 6.33008 5.16299 6.41383 5.31207 6.5629L9.49998 10.7587L13.6879 6.57082C13.8393 6.44112 14.0342 6.37335 14.2334 6.38105C14.4326 6.38874 14.6216 6.47134 14.7626 6.61233C14.9036 6.75332 14.9862 6.94232 14.9939 7.14157C15.0016 7.34081 14.9338 7.53562 14.8042 7.68707L10.0542 12.4371C9.90669 12.5833 9.70767 12.6658 9.49998 12.6667Z" fill="black"/>
</svg>
