<svg width="8" height="14" viewBox="0 0 8 14" fill="none" xmlns="http://www.w3.org/2000/svg">
<path d="M6.99982 -2.76566e-05C6.86821 -0.000788689 6.73775 0.024436 6.61591 0.0742006C6.49407 0.123965 6.38326 0.197292 6.28982 0.289973L0.289816 6.28997C0.103565 6.47734 -0.000976562 6.73079 -0.000976563 6.99497C-0.000976562 7.25916 0.103565 7.51261 0.289816 7.69997L6.28982 13.7C6.48112 13.8638 6.72719 13.9494 6.97887 13.9397C7.23055 13.93 7.46929 13.8256 7.64738 13.6475C7.82547 13.4694 7.92981 13.2307 7.93953 12.979C7.94925 12.7274 7.86364 12.4813 7.69982 12.29L2.40982 6.99997L7.69982 1.70997C7.84024 1.5707 7.93621 1.39292 7.97559 1.19911C8.01498 1.00529 7.99601 0.804152 7.92108 0.621119C7.84616 0.438087 7.71864 0.281383 7.55466 0.170819C7.39068 0.060256 7.19759 0.00080204 6.99982 -2.76566e-05Z" fill="#2C2C2C"/>
</svg>
