<svg width="18" height="18" viewBox="0 0 18 18" fill="none" xmlns="http://www.w3.org/2000/svg">
<g clip-path="url(#clip0_185_1746)">
<path d="M16.536 11.019L16.794 13.5L14.514 14.517L13.5 16.794L11.019 16.536L9 18L6.981 16.536L4.5 16.794L3.48296 14.514L1.206 13.5L1.464 11.019L0 9L1.464 6.981L1.206 4.5L3.486 3.48296L4.5 1.206L6.981 1.464L9 0L11.019 1.464L13.5 1.206L14.517 3.486L16.794 4.5L16.536 6.981L18 9L16.536 11.019Z" fill="#00EC4B"/>
<path d="M13.1403 6.66007L12.2914 5.81104L7.20036 10.902L5.50232 9.20696L4.65332 10.053L7.20036 12.6L13.1403 6.66007Z" fill="white"/>
</g>
<defs>
<clipPath id="clip0_185_1746">
<rect width="18" height="18" fill="white"/>
</clipPath>
</defs>
</svg>
