<svg width="21" height="20" viewBox="0 0 21 20" fill="none" xmlns="http://www.w3.org/2000/svg">
<path d="M17.4629 3.75H14.3379V3.125C14.3379 2.62772 14.1403 2.15081 13.7887 1.79917C13.4371 1.44754 12.9602 1.25 12.4629 1.25H8.71289C8.21561 1.25 7.7387 1.44754 7.38706 1.79917C7.03543 2.15081 6.83789 2.62772 6.83789 3.125V3.75H3.71289C3.54713 3.75 3.38816 3.81585 3.27095 3.93306C3.15374 4.05027 3.08789 4.20924 3.08789 4.375C3.08789 4.54076 3.15374 4.69973 3.27095 4.81694C3.38816 4.93415 3.54713 5 3.71289 5H4.33789V16.25C4.33789 16.5815 4.46959 16.8995 4.70401 17.1339C4.93843 17.3683 5.25637 17.5 5.58789 17.5H15.5879C15.9194 17.5 16.2374 17.3683 16.4718 17.1339C16.7062 16.8995 16.8379 16.5815 16.8379 16.25V5H17.4629C17.6287 5 17.7876 4.93415 17.9048 4.81694C18.022 4.69973 18.0879 4.54076 18.0879 4.375C18.0879 4.20924 18.022 4.05027 17.9048 3.93306C17.7876 3.81585 17.6287 3.75 17.4629 3.75ZM8.08789 3.125C8.08789 2.95924 8.15374 2.80027 8.27095 2.68306C8.38816 2.56585 8.54713 2.5 8.71289 2.5H12.4629C12.6287 2.5 12.7876 2.56585 12.9048 2.68306C13.022 2.80027 13.0879 2.95924 13.0879 3.125V3.75H8.08789V3.125ZM15.5879 16.25H5.58789V5H15.5879V16.25ZM9.33789 8.125V13.125C9.33789 13.2908 9.27204 13.4497 9.15483 13.5669C9.03762 13.6842 8.87865 13.75 8.71289 13.75C8.54713 13.75 8.38816 13.6842 8.27095 13.5669C8.15374 13.4497 8.08789 13.2908 8.08789 13.125V8.125C8.08789 7.95924 8.15374 7.80027 8.27095 7.68306C8.38816 7.56585 8.54713 7.5 8.71289 7.5C8.87865 7.5 9.03762 7.56585 9.15483 7.68306C9.27204 7.80027 9.33789 7.95924 9.33789 8.125ZM13.0879 8.125V13.125C13.0879 13.2908 13.022 13.4497 12.9048 13.5669C12.7876 13.6842 12.6287 13.75 12.4629 13.75C12.2971 13.75 12.1382 13.6842 12.0209 13.5669C11.9037 13.4497 11.8379 13.2908 11.8379 13.125V8.125C11.8379 7.95924 11.9037 7.80027 12.0209 7.68306C12.1382 7.56585 12.2971 7.5 12.4629 7.5C12.6287 7.5 12.7876 7.56585 12.9048 7.68306C13.022 7.80027 13.0879 7.95924 13.0879 8.125Z" fill="black"/>
</svg>
