<svg width="21" height="20" viewBox="0 0 21 20" fill="none" xmlns="http://www.w3.org/2000/svg">
<path d="M18.2363 5.84207L14.7449 2.35066C14.6434 2.24909 14.5228 2.16851 14.3901 2.11354C14.2574 2.05857 14.1151 2.03027 13.9715 2.03027C13.8278 2.03027 13.6856 2.05857 13.5529 2.11354C13.4202 2.16851 13.2996 2.24909 13.198 2.35066L3.56445 11.985C3.46269 12.0865 3.38199 12.207 3.32702 12.3398C3.27204 12.4725 3.24388 12.6148 3.24414 12.7585V16.2499C3.24414 16.54 3.35938 16.8182 3.56449 17.0233C3.76961 17.2284 4.04781 17.3436 4.33789 17.3436H7.8293C7.97297 17.3439 8.11528 17.3157 8.24802 17.2608C8.38077 17.2058 8.50132 17.1251 8.60274 17.0233L18.2363 7.38895C18.3379 7.28738 18.4185 7.1668 18.4735 7.03409C18.5284 6.90139 18.5567 6.75915 18.5567 6.61551C18.5567 6.47187 18.5284 6.32963 18.4735 6.19692C18.4185 6.06422 18.3379 5.94364 18.2363 5.84207ZM7.93946 16.36C7.91029 16.3894 7.87067 16.406 7.8293 16.4061H4.33789C4.29645 16.4061 4.25671 16.3897 4.22741 16.3604C4.1981 16.3311 4.18164 16.2913 4.18164 16.2499V12.7585C4.18182 12.7171 4.19839 12.6775 4.22774 12.6483L11.2129 5.66238L14.9246 9.37488L7.93946 16.36ZM17.573 6.72645L15.5879 8.7116L11.8762 4.99988L13.8613 3.01395C13.8758 2.99942 13.8931 2.98789 13.912 2.98003C13.931 2.97217 13.9513 2.96812 13.9719 2.96812C13.9924 2.96812 14.0127 2.97217 14.0317 2.98003C14.0507 2.98789 14.0679 2.99942 14.0824 3.01395L17.573 6.50535C17.5876 6.51986 17.5991 6.5371 17.607 6.55606C17.6148 6.57503 17.6189 6.59537 17.6189 6.6159C17.6189 6.63643 17.6148 6.65677 17.607 6.67573C17.5991 6.6947 17.5876 6.71193 17.573 6.72645Z" fill="black"/>
</svg>
