<svg width="61" height="60" viewBox="0 0 61 60" fill="none" xmlns="http://www.w3.org/2000/svg">
<path d="M60.9472 30.0011C60.9472 45.1529 49.719 57.6793 35.1327 59.712C33.7688 59.9012 32.3735 60 30.9571 60C29.3221 60 27.7166 59.8697 26.1531 59.6174C11.8715 57.3177 0.964844 44.9322 0.964844 30.0011C0.964844 13.4324 14.3933 0 30.955 0C47.5167 0 60.9472 13.4324 60.9472 30.0011Z" fill="#1877F2"/>
<path d="M35.1332 24.0879V30.6233H43.2155L41.9357 39.4268H35.1332V59.7099C33.7694 59.8991 32.374 59.9979 30.9576 59.9979C29.3227 59.9979 27.7171 59.8676 26.1536 59.6153V39.4268H18.6997V30.6233H26.1536V22.6269C26.1536 17.666 30.1738 13.6426 35.1353 13.6426V13.6468C35.15 13.6468 35.1626 13.6426 35.1774 13.6426H43.2176V21.2564H37.9639C36.4025 21.2564 35.1353 22.5239 35.1353 24.0858L35.1332 24.0879Z" fill="white"/>
</svg>
