<svg width="20" height="20" viewBox="0 0 20 20" fill="none" xmlns="http://www.w3.org/2000/svg">
<path d="M9.99609 1.58301C10.1761 1.58301 10.3521 1.63657 10.502 1.73633C10.6518 1.83621 10.7695 1.9783 10.8389 2.14453V2.14551L12.6572 6.4707L12.7354 6.65625L12.9365 6.67285L17.5801 7.0752V7.07617H17.5811C17.7607 7.09134 17.932 7.15859 18.0732 7.27051C18.2147 7.38265 18.3202 7.53438 18.376 7.70605C18.4317 7.87774 18.4353 8.06248 18.3867 8.23633C18.3414 8.39813 18.2513 8.54276 18.1289 8.65723L18.0977 8.68457L14.5742 11.7598L14.4229 11.8906L14.4678 12.0859L15.5234 16.6641V16.665C15.5643 16.8404 15.553 17.0237 15.4902 17.1924C15.4274 17.3613 15.3157 17.5082 15.1699 17.6143C15.0243 17.7201 14.8508 17.7813 14.6709 17.7891C14.4909 17.7969 14.3125 17.7512 14.1582 17.6582H14.1592L10.166 15.2363L9.99316 15.1318L9.82031 15.2373L5.83691 17.6582C5.68268 17.7512 5.50412 17.7968 5.32422 17.7891C5.14416 17.7813 4.96997 17.7203 4.82422 17.6143C4.67848 17.5082 4.56678 17.3613 4.50391 17.1924C4.44123 17.0237 4.42988 16.8403 4.4707 16.665V16.6641L5.52441 12.0898L5.56934 11.8955L5.41895 11.7646L1.89551 8.68457L1.89355 8.68359L1.79785 8.58789C1.71034 8.48639 1.6458 8.36643 1.60938 8.23633C1.56078 8.06248 1.56438 7.87774 1.62012 7.70605C1.67586 7.53437 1.78141 7.38265 1.92285 7.27051C2.06413 7.15859 2.23544 7.09135 2.41504 7.07617H2.41602L7.06152 6.67383L7.2627 6.65625L7.33984 6.46973L9.15332 2.14551V2.14453C9.22268 1.9783 9.34034 1.83621 9.49023 1.73633C9.64007 1.63656 9.81608 1.58301 9.99609 1.58301Z" fill="#FFCD43" stroke="black" stroke-width="0.666667"/>
</svg>
