<svg width="68" height="313" viewBox="0 0 68 313" fill="none" xmlns="http://www.w3.org/2000/svg">
<path d="M51.3782 312.514L48.2175 301.408L59.4159 304.224L51.3782 312.514ZM36.3684 201.128L35.5256 201.666L36.3684 201.128ZM33.7924 1.06976L34.7024 1.48453C33.8734 3.30302 33.0477 5.10332 32.2269 6.88686L31.3185 6.46878L30.41 6.0507C31.2302 4.2687 32.0549 2.47069 32.8825 0.654998L33.7924 1.06976ZM26.3438 17.246L27.2519 17.6647C25.5683 21.3164 23.9227 24.906 22.3307 28.4497L21.4185 28.0399L20.5063 27.63C22.1024 24.0776 23.7511 20.4811 25.4357 16.8273L26.3438 17.246ZM16.6658 38.9084L17.5869 39.2978C16.0284 42.9844 14.55 46.6346 13.1706 50.2664L12.2357 49.9114L11.3009 49.5563C12.6907 45.8971 14.1786 42.2237 15.7447 38.5191L16.6658 38.9084ZM8.30587 61.1013L9.2583 61.4061C8.05048 65.1807 6.97239 68.9545 6.04561 72.748L5.07419 72.5106L4.10276 72.2733C5.04181 68.4296 6.13301 64.6106 7.35345 60.7966L8.30587 61.1013ZM2.73999 84.1355L3.72808 84.2894C3.12848 88.1399 2.70159 92.0311 2.46912 95.9832L1.47084 95.9245L0.472568 95.8657C0.708964 91.8469 1.14295 87.8922 1.7519 83.9817L2.73999 84.1355ZM1.36476 107.781L2.36392 107.74C2.52054 111.566 2.86583 115.463 3.41797 119.45L2.42743 119.587L1.43689 119.724C0.875947 115.674 0.524871 111.712 0.365597 107.822L1.36476 107.781ZM4.58106 131.238L5.55556 131.014C6.4077 134.715 7.43664 138.499 8.6553 142.377L7.70129 142.677L6.74727 142.977C5.51358 139.051 4.47081 135.216 3.60655 131.462L4.58106 131.238ZM11.6549 153.889L12.5865 153.526C13.9625 157.055 15.4905 160.663 17.179 164.358L16.2695 164.774L15.36 165.189C13.6564 161.462 12.1135 157.818 10.7232 154.253L11.6549 153.889ZM21.477 175.459L22.3654 174.999C24.1154 178.386 25.9947 181.844 28.0089 185.379L27.14 185.874L26.2711 186.369C24.2441 182.811 22.3518 179.329 20.5887 175.918L21.477 175.459ZM33.1827 196.053L34.0338 195.528C35.064 197.198 36.1229 198.885 37.2112 200.59L36.3684 201.128L35.5256 201.666C34.4318 199.953 33.3673 198.257 32.3315 196.578L33.1827 196.053ZM36.3684 201.128L37.2112 200.59C38.349 202.372 39.4474 204.121 40.5076 205.84L39.6565 206.365L38.8054 206.89C37.7508 205.181 36.658 203.439 35.5256 201.666L36.3684 201.128ZM45.8463 216.798L46.7156 216.304C48.8585 220.073 50.7996 223.675 52.5539 227.119L51.6628 227.573L50.7718 228.027C49.0323 224.612 47.1058 221.037 44.9769 217.292L45.8463 216.798ZM56.8605 238.532L57.7769 238.132C59.5477 242.188 61.0272 245.99 62.2482 249.559L61.302 249.883L60.3559 250.206C59.1542 246.694 57.695 242.942 55.944 238.932L56.8605 238.532ZM64.6067 261.647L65.5847 261.438C66.5483 265.958 67.0273 270.017 67.1282 273.679L66.1286 273.707L65.129 273.734C65.0317 270.206 64.5696 266.269 63.6286 261.855L64.6067 261.647ZM64.8829 285.797L65.8519 286.044C64.6717 290.677 62.8176 294.374 60.8492 297.455L60.0065 296.917L59.1638 296.379C61.0435 293.436 62.797 289.934 63.9138 285.55L64.8829 285.797Z" fill="black"/>
</svg>
