<svg width="68" height="310" viewBox="0 0 68 310" fill="none" xmlns="http://www.w3.org/2000/svg">
<path d="M33.8039 0.736444C36.7495 0.742804 39.1321 3.13577 39.1257 6.08128C39.1194 9.02679 36.7264 11.4094 33.7809 11.4031C30.8354 11.3967 28.4527 9.00376 28.4591 6.05825C28.4655 3.11274 30.8584 0.730083 33.8039 0.736444ZM36.3803 200.61L35.5445 201.159L36.3803 200.61ZM33.7924 6.06976L34.6979 6.49417C33.8703 8.25989 33.0458 10.008 32.2263 11.7398L31.3224 11.3121L30.4185 10.8843C31.2373 9.15404 32.0607 7.40827 32.887 5.64536L33.7924 6.06976ZM26.3559 21.7758L27.2595 22.2042C25.5785 25.7498 23.9355 29.2352 22.3458 32.6759L21.438 32.2565L20.5302 31.837C22.1241 28.3874 23.7704 24.8951 25.4523 21.3474L26.3559 21.7758ZM16.6901 42.8129L17.6071 43.2117C16.0493 46.7942 14.5714 50.341 13.1923 53.8699L12.2609 53.5059L11.3295 53.1419C12.7195 49.5853 14.2073 46.0149 15.773 42.4141L16.6901 42.8129ZM8.32731 64.3896L9.27712 64.7024C8.06702 68.3766 6.98689 72.0498 6.05838 75.7419L5.08857 75.498L4.11877 75.2541C5.06023 71.5105 6.15414 67.7912 7.3775 64.0768L8.32731 64.3896ZM2.74724 86.828L3.73465 86.9862C3.13324 90.7404 2.70552 94.5342 2.47339 98.3876L1.4752 98.3275L0.477012 98.2673C0.713284 94.3451 1.14852 90.4858 1.75983 86.6698L2.74724 86.828ZM1.37372 109.897L2.37281 109.854C2.5321 113.584 2.88114 117.384 3.43832 121.271L2.44844 121.413L1.45855 121.555C0.89201 117.603 0.536773 113.736 0.374634 109.939L1.37372 109.897ZM4.61804 132.769L5.59091 132.538C6.44737 136.139 7.48092 139.821 8.70453 143.596L7.75327 143.904L6.80201 144.212C5.56259 140.389 4.51445 136.655 3.64517 133L4.61804 132.769ZM11.7193 154.81L12.6472 154.437C14.024 157.863 15.5524 161.365 17.2408 164.952L16.336 165.378L15.4313 165.804C13.7273 162.184 12.1834 158.646 10.7915 155.183L11.7193 154.81ZM21.5399 175.746L22.4227 175.276C24.1684 178.557 26.0423 181.908 28.0503 185.332L27.1876 185.838L26.3249 186.344C24.3038 182.897 22.4163 179.522 20.6571 176.216L21.5399 175.746ZM33.2082 195.696L34.0527 195.161C35.0784 196.778 36.1328 198.411 37.2162 200.061L36.3803 200.61L35.5445 201.159C34.4554 199.5 33.3954 197.858 32.3638 196.232L33.2082 195.696ZM36.3803 200.61L37.2162 200.061C38.3504 201.788 39.4454 203.484 40.5025 205.15L39.6581 205.686L38.8137 206.221C37.7624 204.565 36.673 202.877 35.5445 201.159L36.3803 200.61ZM45.8325 215.803L46.6957 215.298C48.8351 218.955 50.7737 222.451 52.5263 225.794L51.6406 226.258L50.755 226.722C49.0177 223.409 47.0942 219.94 44.9693 216.307L45.8325 215.803ZM56.8386 236.903L57.7506 236.493C59.5264 240.442 61.0106 244.145 62.2359 247.62L61.2928 247.953L60.3497 248.285C59.1446 244.867 57.6816 241.216 55.9265 237.313L56.8386 236.903ZM64.6122 259.416L65.5889 259.201C66.5605 263.619 67.0431 267.585 67.1445 271.163L66.1449 271.192L65.1453 271.22C65.0479 267.78 64.5831 263.939 63.6356 259.63L64.6122 259.416ZM64.8867 282.995L65.8537 283.25C64.6657 287.759 62.8037 291.355 60.831 294.351L59.9959 293.801L59.1607 293.251C61.0424 290.394 62.7987 286.995 63.9197 282.74L64.8867 282.995ZM52.8475 303.325L53.6873 303.868C52.5083 305.691 52.0247 307.172 52.372 308.703L51.3968 308.924L50.4215 309.145C49.8976 306.835 50.7167 304.779 52.0077 302.782L52.8475 303.325Z" fill="black"/>
</svg>
