<svg width="21" height="21" viewBox="0 0 21 21" fill="none" xmlns="http://www.w3.org/2000/svg">
<g clip-path="url(#clip0_90_478)">
<path d="M10.5388 0.0996094C13.3892 0.0996094 13.7445 0.112731 14.866 0.166016H14.8669C15.9727 0.214745 16.7251 0.393288 17.3826 0.647461H17.3835C18.0672 0.90478 18.6908 1.31101 19.2058 1.83398L19.2068 1.83594C19.7336 2.35071 20.1366 2.96996 20.3982 3.66211V3.66309C20.6523 4.31652 20.8309 5.07283 20.8796 6.17871C20.9287 7.29597 20.9324 7.65102 20.9324 10.502C20.9324 13.3522 20.9209 13.7078 20.8718 14.8252C20.8292 15.7928 20.6862 16.4901 20.4812 17.0898L20.3894 17.3418C20.1245 18.0266 19.7201 18.6488 19.2009 19.168C18.6817 19.6872 18.0596 20.0926 17.3748 20.3574H17.3738C16.7206 20.6115 15.964 20.7901 14.8582 20.8389C13.7407 20.8881 13.3852 20.9004 10.5349 20.9004C7.68458 20.9004 7.32899 20.8882 6.21167 20.8389C5.10552 20.7902 4.35275 20.6116 3.69507 20.3574L3.69409 20.3564C3.09591 20.1313 2.54374 19.792 2.07007 19.3604L1.87183 19.1699L1.87085 19.1689L1.68042 18.9707C1.24878 18.4977 0.90921 17.948 0.68042 17.3428L0.679443 17.3418L0.588623 17.0908C0.383529 16.4932 0.240694 15.793 0.197998 14.8252C0.148923 13.7078 0.136475 13.3522 0.136475 10.502C0.136475 7.65154 0.14963 7.29645 0.202881 6.1748V6.17383C0.251663 5.06817 0.430163 4.31588 0.684326 3.6582V3.65723C0.941873 2.9736 1.34791 2.34986 1.87085 1.83496L1.8728 1.83398C2.38755 1.30718 3.00668 0.905116 3.69897 0.643555L3.69995 0.642578C4.35323 0.388706 5.10969 0.209924 6.21558 0.161133C7.33316 0.112011 7.68852 0.0996097 10.5388 0.0996094ZM10.5466 1.80762C7.74473 1.80762 7.41029 1.81982 6.30054 1.86914C5.26961 1.91476 4.7011 2.08904 4.32202 2.23633C3.85376 2.40914 3.4319 2.68309 3.08179 3.04102C2.71788 3.388 2.44266 3.81478 2.26929 4.2832C2.12189 4.66223 1.94762 5.22708 1.9021 6.26367C1.85261 7.36928 1.84058 7.70769 1.84058 10.5098C1.84058 13.3123 1.85261 13.647 1.9021 14.7568C1.94758 15.7886 2.12192 16.3572 2.26929 16.7363C2.44239 17.2043 2.71701 17.6254 3.07495 17.9756V17.9766C3.42206 18.3363 3.8494 18.6109 4.31812 18.7842V18.7832C4.69717 18.9305 5.26118 19.1059 6.29663 19.1514C7.40245 19.2009 7.74058 19.2129 10.5427 19.2129C13.3452 19.2129 13.68 19.2009 14.7898 19.1514L14.7888 19.1504C15.8214 19.1049 16.3902 18.9306 16.7693 18.7832V18.7842C17.7105 18.4211 18.458 17.6736 18.821 16.7324L18.8201 16.7314C18.9674 16.3524 19.1426 15.7878 19.1882 14.752C19.2375 13.6425 19.2498 13.3119 19.2498 10.5098C19.2498 7.70766 19.2376 7.37343 19.1882 6.26367C19.1425 5.2311 18.9675 4.66228 18.8201 4.2832C18.6466 3.81459 18.3722 3.39232 18.0134 3.04199C17.6667 2.68321 17.2401 2.40913 16.7722 2.23633H16.7712C16.3922 2.08913 15.8281 1.91476 14.7937 1.86914C13.6879 1.81981 13.3533 1.80762 10.5466 1.80762Z" fill="black" stroke="#F7F0DE" stroke-width="0.2"/>
<path d="M10.5388 5.20703C13.4619 5.20703 15.8337 7.57882 15.8337 10.502C15.8337 13.4251 13.4619 15.7969 10.5388 15.7969C7.61585 15.7968 5.2439 13.4251 5.2439 10.502C5.24394 7.57885 7.61588 5.20707 10.5388 5.20703ZM10.5388 6.90234C8.55155 6.90236 6.93926 8.51448 6.93921 10.502C6.93921 12.4895 8.5515 14.1015 10.5388 14.1016C12.5263 14.1016 14.1384 12.4895 14.1384 10.502C14.1384 8.51447 12.5263 6.90234 10.5388 6.90234ZM16.1472 3.73438C16.7874 3.73461 17.3064 4.25429 17.3064 4.89453C17.3062 5.53446 16.7873 6.05346 16.1472 6.05371C15.5071 6.05371 14.9873 5.53463 14.9871 4.89453C14.9871 4.25418 15.5069 3.73438 16.1472 3.73438Z" fill="black" stroke="#F7F0DE" stroke-width="0.2"/>
</g>
<defs>
<clipPath id="clip0_90_478">
<rect width="21" height="21" fill="white"/>
</clipPath>
</defs>
</svg>
