<svg width="60" height="60" viewBox="0 0 60 60" fill="none" xmlns="http://www.w3.org/2000/svg">
<path d="M30.0595 0H29.9229C13.3969 0 0 13.4009 0 29.9317V30.0683C0 46.5991 13.3969 60 29.9229 60H30.0595C46.5854 60 59.9823 46.5991 59.9823 30.0683V29.9317C59.9823 13.4009 46.5854 0 30.0595 0Z" fill="url(#paint0_linear_55598_2825)"/>
<path d="M39.2723 12.207H20.7121C15.5845 12.207 11.4131 16.3797 11.4131 21.5088V38.4937C11.4131 43.6228 15.5845 47.7954 20.7121 47.7954H39.2723C44.3999 47.7954 48.5713 43.6228 48.5713 38.4937V21.5088C48.5713 16.3797 44.3999 12.207 39.2723 12.207ZM14.6935 21.5088C14.6935 18.1896 17.3939 15.4884 20.7121 15.4884H39.2723C42.5905 15.4884 45.2909 18.1896 45.2909 21.5088V38.4937C45.2909 41.8129 42.5905 44.5141 39.2723 44.5141H20.7121C17.3939 44.5141 14.6935 41.8129 14.6935 38.4937V21.5088Z" fill="white"/>
<path d="M29.9929 38.6511C34.7612 38.6511 38.6426 34.7706 38.6426 29.9989C38.6426 25.2271 34.7633 21.3467 29.9929 21.3467C25.2226 21.3467 21.3433 25.2271 21.3433 29.9989C21.3433 34.7706 25.2226 38.6511 29.9929 38.6511ZM29.9929 24.6301C32.9539 24.6301 35.3622 27.0391 35.3622 30.001C35.3622 32.9628 32.9539 35.3718 29.9929 35.3718C27.032 35.3718 24.6237 32.9628 24.6237 30.001C24.6237 27.0391 27.032 24.6301 29.9929 24.6301Z" fill="white"/>
<path d="M39.4428 22.7445C40.7268 22.7445 41.7734 21.6997 41.7734 20.4133C41.7734 19.1268 40.7289 18.082 39.4428 18.082C38.1567 18.082 37.1123 19.1268 37.1123 20.4133C37.1123 21.6997 38.1567 22.7445 39.4428 22.7445Z" fill="white"/>
<defs>
<linearGradient id="paint0_linear_55598_2825" x1="8.76314" y1="51.2343" x2="51.2317" y2="8.78033" gradientUnits="userSpaceOnUse">
<stop stop-color="#FAAD4F"/>
<stop offset="0.35" stop-color="#DD2A7B"/>
<stop offset="0.62" stop-color="#9537B0"/>
<stop offset="1" stop-color="#515BD4"/>
</linearGradient>
</defs>
</svg>
