<svg width="61" height="60" viewBox="0 0 61 60" fill="none" xmlns="http://www.w3.org/2000/svg">
<path d="M31.0419 0H30.9053C14.3794 0 0.982422 13.4009 0.982422 29.9317V30.0683C0.982422 46.5991 14.3794 60 30.9053 60H31.0419C47.5678 60 60.9648 46.5991 60.9648 30.0683V29.9317C60.9648 13.4009 47.5678 0 31.0419 0Z" fill="#007EBB"/>
<path d="M15.2876 19.9444C14.4974 19.2108 14.1045 18.3027 14.1045 17.2222C14.1045 16.1417 14.4995 15.1937 15.2876 14.4579C16.0778 13.7243 17.0949 13.3564 18.341 13.3564C19.5872 13.3564 20.5644 13.7243 21.3525 14.4579C22.1426 15.1916 22.5356 16.1144 22.5356 17.2222C22.5356 18.33 22.1405 19.2108 21.3525 19.9444C20.5623 20.678 19.5599 21.0459 18.341 21.0459C17.1222 21.0459 16.0778 20.678 15.2876 19.9444ZM21.8715 24.1528V46.6452H14.7664V24.1528H21.8715Z" fill="#FEFFFC"/>
<path d="M45.524 26.375C47.0728 28.0567 47.8461 30.3648 47.8461 33.3035V46.2482H41.0983V34.2159C41.0983 32.7339 40.7137 31.5819 39.9467 30.7621C39.1797 29.9423 38.1458 29.5303 36.8512 29.5303C35.5567 29.5303 34.5228 29.9402 33.7557 30.7621C32.9887 31.5819 32.6041 32.7339 32.6041 34.2159V46.2482H25.8164V24.0901H32.6041V27.0288C33.2913 26.0492 34.2181 25.2757 35.3823 24.706C36.5465 24.1363 37.8557 23.8525 39.3121 23.8525C41.9053 23.8525 43.9773 24.6934 45.524 26.375Z" fill="#FEFFFC"/>
</svg>
