<svg width="28" height="25" viewBox="0 0 28 25" fill="none" xmlns="http://www.w3.org/2000/svg">
<path d="M17.0417 6.83333V3.91667C17.0417 3.14312 16.7344 2.40125 16.1874 1.85427C15.6404 1.30729 14.8985 1 14.125 1H3.91667C3.14312 1 2.40125 1.30729 1.85427 1.85427C1.30729 2.40125 1 3.14312 1 3.91667V21.4167C1 22.1902 1.30729 22.9321 1.85427 23.4791C2.40125 24.026 3.14312 24.3333 3.91667 24.3333H14.125C14.8985 24.3333 15.6404 24.026 16.1874 23.4791C16.7344 22.9321 17.0417 22.1902 17.0417 21.4167V18.5" stroke="#193A43" stroke-linecap="round" stroke-linejoin="round"/>
<path d="M9.75 12.667H27.25L22.875 8.29199" stroke="#193A43" stroke-linecap="round" stroke-linejoin="round"/>
<path d="M22.875 17.042L27.25 12.667" stroke="#193A43" stroke-linecap="round" stroke-linejoin="round"/>
</svg>
