<svg width="113" height="20" viewBox="0 0 113 20" fill="none" xmlns="http://www.w3.org/2000/svg">
<path d="M9.99609 1.58301C10.1761 1.58301 10.3521 1.63657 10.502 1.73633C10.6518 1.83621 10.7695 1.9783 10.8389 2.14453V2.14551L12.6572 6.4707L12.7354 6.65625L12.9365 6.67285L17.5801 7.0752V7.07617H17.5811C17.7607 7.09134 17.932 7.15859 18.0732 7.27051C18.2147 7.38265 18.3202 7.53438 18.376 7.70605C18.4317 7.87774 18.4353 8.06248 18.3867 8.23633C18.3414 8.39813 18.2513 8.54276 18.1289 8.65723L18.0977 8.68457L14.5742 11.7598L14.4229 11.8906L14.4678 12.0859L15.5234 16.6641V16.665C15.5643 16.8404 15.553 17.0237 15.4902 17.1924C15.4274 17.3613 15.3157 17.5082 15.1699 17.6143C15.0243 17.7201 14.8508 17.7813 14.6709 17.7891C14.4909 17.7969 14.3125 17.7512 14.1582 17.6582H14.1592L10.166 15.2363L9.99316 15.1318L9.82031 15.2373L5.83691 17.6582C5.68268 17.7512 5.50412 17.7968 5.32422 17.7891C5.14416 17.7813 4.96997 17.7203 4.82422 17.6143C4.67848 17.5082 4.56678 17.3613 4.50391 17.1924C4.44123 17.0237 4.42988 16.8403 4.4707 16.665V16.6641L5.52441 12.0898L5.56934 11.8955L5.41895 11.7646L1.89551 8.68457L1.89355 8.68359L1.79785 8.58789C1.71034 8.48639 1.6458 8.36643 1.60938 8.23633C1.56078 8.06248 1.56438 7.87774 1.62012 7.70605C1.67586 7.53437 1.78141 7.38265 1.92285 7.27051C2.06413 7.15859 2.23544 7.09135 2.41504 7.07617H2.41602L7.06152 6.67383L7.2627 6.65625L7.33984 6.46973L9.15332 2.14551V2.14453C9.22268 1.9783 9.34034 1.83621 9.49023 1.73633C9.64007 1.63656 9.81608 1.58301 9.99609 1.58301Z" stroke="black" stroke-width="0.666667"/>
<path d="M33.1211 1.58301C33.3011 1.58301 33.4771 1.63657 33.627 1.73633C33.7768 1.83621 33.8945 1.9783 33.9639 2.14453V2.14551L35.7822 6.4707L35.8604 6.65625L36.0615 6.67285L40.7051 7.0752V7.07617H40.7061C40.8857 7.09134 41.057 7.15859 41.1982 7.27051C41.3397 7.38265 41.4452 7.53438 41.501 7.70605C41.5567 7.87774 41.5603 8.06248 41.5117 8.23633C41.4664 8.39813 41.3763 8.54276 41.2539 8.65723L41.2227 8.68457L37.6992 11.7598L37.5479 11.8906L37.5928 12.0859L38.6484 16.6641V16.665C38.6893 16.8404 38.678 17.0237 38.6152 17.1924C38.5524 17.3613 38.4407 17.5082 38.2949 17.6143C38.1493 17.7201 37.9758 17.7813 37.7959 17.7891C37.6159 17.7969 37.4375 17.7512 37.2832 17.6582H37.2842L33.291 15.2363L33.1182 15.1318L32.9453 15.2373L28.9619 17.6582C28.8077 17.7512 28.6291 17.7968 28.4492 17.7891C28.2692 17.7813 28.095 17.7203 27.9492 17.6143C27.8035 17.5082 27.6918 17.3613 27.6289 17.1924C27.5662 17.0237 27.5549 16.8403 27.5957 16.665V16.6641L28.6494 12.0898L28.6943 11.8955L28.5439 11.7646L25.0205 8.68457L25.0186 8.68359L24.9229 8.58789C24.8353 8.48639 24.7708 8.36643 24.7344 8.23633C24.6858 8.06248 24.6894 7.87774 24.7451 7.70605C24.8009 7.53437 24.9064 7.38265 25.0479 7.27051C25.1891 7.15859 25.3604 7.09135 25.54 7.07617H25.541L30.1865 6.67383L30.3877 6.65625L30.4648 6.46973L32.2783 2.14551V2.14453C32.3477 1.9783 32.4653 1.83621 32.6152 1.73633C32.7651 1.63656 32.9411 1.58301 33.1211 1.58301Z" stroke="black" stroke-width="0.666667"/>
<path d="M56.2461 1.58301C56.4261 1.58301 56.6021 1.63657 56.752 1.73633C56.9018 1.83621 57.0195 1.9783 57.0889 2.14453V2.14551L58.9072 6.4707L58.9854 6.65625L59.1865 6.67285L63.8301 7.0752V7.07617H63.8311C64.0107 7.09134 64.182 7.15859 64.3232 7.27051C64.4647 7.38265 64.5702 7.53438 64.626 7.70605C64.6817 7.87774 64.6853 8.06248 64.6367 8.23633C64.5914 8.39813 64.5013 8.54276 64.3789 8.65723L64.3477 8.68457L60.8242 11.7598L60.6729 11.8906L60.7178 12.0859L61.7734 16.6641V16.665C61.8143 16.8404 61.803 17.0237 61.7402 17.1924C61.6774 17.3613 61.5657 17.5082 61.4199 17.6143C61.2743 17.7201 61.1008 17.7813 60.9209 17.7891C60.7409 17.7969 60.5625 17.7512 60.4082 17.6582H60.4092L56.416 15.2363L56.2432 15.1318L56.0703 15.2373L52.0869 17.6582C51.9327 17.7512 51.7541 17.7968 51.5742 17.7891C51.3942 17.7813 51.22 17.7203 51.0742 17.6143C50.9285 17.5082 50.8168 17.3613 50.7539 17.1924C50.6912 17.0237 50.6799 16.8403 50.7207 16.665V16.6641L51.7744 12.0898L51.8193 11.8955L51.6689 11.7646L48.1455 8.68457L48.1436 8.68359L48.0479 8.58789C47.9603 8.48639 47.8958 8.36643 47.8594 8.23633C47.8108 8.06248 47.8144 7.87774 47.8701 7.70605C47.9259 7.53437 48.0314 7.38265 48.1729 7.27051C48.3141 7.15859 48.4854 7.09135 48.665 7.07617H48.666L53.3115 6.67383L53.5127 6.65625L53.5898 6.46973L55.4033 2.14551V2.14453C55.4727 1.9783 55.5903 1.83621 55.7402 1.73633C55.8901 1.63656 56.0661 1.58301 56.2461 1.58301Z" stroke="black" stroke-width="0.666667"/>
<path d="M79.3711 1.58301C79.5511 1.58301 79.7271 1.63657 79.877 1.73633C80.0268 1.83621 80.1445 1.9783 80.2139 2.14453V2.14551L82.0322 6.4707L82.1104 6.65625L82.3115 6.67285L86.9551 7.0752V7.07617H86.9561C87.1357 7.09134 87.307 7.15859 87.4482 7.27051C87.5897 7.38265 87.6952 7.53438 87.751 7.70605C87.8067 7.87774 87.8103 8.06248 87.7617 8.23633C87.7164 8.39813 87.6263 8.54276 87.5039 8.65723L87.4727 8.68457L83.9492 11.7598L83.7979 11.8906L83.8428 12.0859L84.8984 16.6641V16.665C84.9393 16.8404 84.928 17.0237 84.8652 17.1924C84.8024 17.3613 84.6907 17.5082 84.5449 17.6143C84.3993 17.7201 84.2258 17.7813 84.0459 17.7891C83.8659 17.7969 83.6875 17.7512 83.5332 17.6582H83.5342L79.541 15.2363L79.3682 15.1318L79.1953 15.2373L75.2119 17.6582C75.0577 17.7512 74.8791 17.7968 74.6992 17.7891C74.5192 17.7813 74.345 17.7203 74.1992 17.6143C74.0535 17.5082 73.9418 17.3613 73.8789 17.1924C73.8162 17.0237 73.8049 16.8403 73.8457 16.665V16.6641L74.8994 12.0898L74.9443 11.8955L74.7939 11.7646L71.2705 8.68457L71.2686 8.68359L71.1729 8.58789C71.0853 8.48639 71.0208 8.36643 70.9844 8.23633C70.9358 8.06248 70.9394 7.87774 70.9951 7.70605C71.0509 7.53437 71.1564 7.38265 71.2979 7.27051C71.4391 7.15859 71.6104 7.09135 71.79 7.07617H71.791L76.4365 6.67383L76.6377 6.65625L76.7148 6.46973L78.5283 2.14551V2.14453C78.5977 1.9783 78.7153 1.83621 78.8652 1.73633C79.0151 1.63656 79.1911 1.58301 79.3711 1.58301Z" stroke="black" stroke-width="0.666667"/>
<path d="M102.496 1.58301C102.676 1.58301 102.852 1.63657 103.002 1.73633C103.152 1.83621 103.27 1.9783 103.339 2.14453V2.14551L105.157 6.4707L105.235 6.65625L105.437 6.67285L110.08 7.0752V7.07617H110.081C110.261 7.09134 110.432 7.15859 110.573 7.27051C110.715 7.38265 110.82 7.53438 110.876 7.70605C110.932 7.87774 110.935 8.06248 110.887 8.23633C110.841 8.39813 110.751 8.54276 110.629 8.65723L110.598 8.68457L107.074 11.7598L106.923 11.8906L106.968 12.0859L108.023 16.6641V16.665C108.064 16.8404 108.053 17.0237 107.99 17.1924C107.927 17.3613 107.816 17.5082 107.67 17.6143C107.524 17.7201 107.351 17.7813 107.171 17.7891C106.991 17.7969 106.813 17.7512 106.658 17.6582H106.659L102.666 15.2363L102.493 15.1318L102.32 15.2373L98.3369 17.6582C98.1827 17.7512 98.0041 17.7968 97.8242 17.7891C97.6442 17.7813 97.47 17.7203 97.3242 17.6143C97.1785 17.5082 97.0668 17.3613 97.0039 17.1924C96.9412 17.0237 96.9299 16.8403 96.9707 16.665V16.6641L98.0244 12.0898L98.0693 11.8955L97.9189 11.7646L94.3955 8.68457L94.3936 8.68359L94.2979 8.58789C94.2103 8.48639 94.1458 8.36643 94.1094 8.23633C94.0608 8.06248 94.0644 7.87774 94.1201 7.70605C94.1759 7.53437 94.2814 7.38265 94.4229 7.27051C94.5641 7.15859 94.7354 7.09135 94.915 7.07617H94.916L99.5615 6.67383L99.7627 6.65625L99.8398 6.46973L101.653 2.14551V2.14453C101.723 1.9783 101.84 1.83621 101.99 1.73633C102.14 1.63656 102.316 1.58301 102.496 1.58301Z" stroke="black" stroke-width="0.666667"/>
</svg>
