<svg width="25" height="25" viewBox="0 0 25 25" fill="none" xmlns="http://www.w3.org/2000/svg">
<path d="M19.9583 6.83333V2.45833C19.9583 2.07156 19.8047 1.70063 19.5312 1.42714C19.2577 1.15365 18.8868 1 18.5 1H3.91667C3.14312 1 2.40125 1.30729 1.85427 1.85427C1.30729 2.40125 1 3.14312 1 3.91667M1 3.91667C1 4.69021 1.30729 5.43208 1.85427 5.97906C2.40125 6.52604 3.14312 6.83333 3.91667 6.83333H21.4167C21.8034 6.83333 22.1744 6.98698 22.4479 7.26047C22.7214 7.53396 22.875 7.90489 22.875 8.29167V12.6667M1 3.91667V21.4167C1 22.1902 1.30729 22.9321 1.85427 23.4791C2.40125 24.026 3.14312 24.3333 3.91667 24.3333H21.4167C21.8034 24.3333 22.1744 24.1797 22.4479 23.9062C22.7214 23.6327 22.875 23.2618 22.875 22.875V18.5" stroke="#2C2C2C" stroke-linecap="round" stroke-linejoin="round"/>
<path d="M24.334 12.667V18.5003H18.5007C17.7271 18.5003 16.9852 18.193 16.4383 17.6461C15.8913 17.0991 15.584 16.3572 15.584 15.5837C15.584 14.8101 15.8913 14.0682 16.4383 13.5213C16.9852 12.9743 17.7271 12.667 18.5007 12.667H24.334Z" stroke="#2C2C2C" stroke-linecap="round" stroke-linejoin="round"/>
</svg>
