<svg width="21" height="20" viewBox="0 0 21 20" fill="none" xmlns="http://www.w3.org/2000/svg">
<path d="M10.4961 1.58301C10.6761 1.58301 10.8521 1.63657 11.002 1.73633C11.1518 1.83621 11.2695 1.9783 11.3389 2.14453V2.14551L13.1572 6.4707L13.2354 6.65625L13.4365 6.67285L18.0801 7.0752V7.07617H18.0811C18.2607 7.09134 18.432 7.15859 18.5732 7.27051C18.7147 7.38265 18.8202 7.53438 18.876 7.70605C18.9317 7.87774 18.9353 8.06248 18.8867 8.23633C18.8414 8.39813 18.7513 8.54276 18.6289 8.65723L18.5977 8.68457L15.0742 11.7598L14.9229 11.8906L14.9678 12.0859L16.0234 16.6641V16.665C16.0643 16.8404 16.053 17.0237 15.9902 17.1924C15.9274 17.3613 15.8157 17.5082 15.6699 17.6143C15.5243 17.7201 15.3508 17.7813 15.1709 17.7891C14.9909 17.7969 14.8125 17.7512 14.6582 17.6582H14.6592L10.666 15.2363L10.4932 15.1318L10.3203 15.2373L6.33691 17.6582C6.18268 17.7512 6.00412 17.7968 5.82422 17.7891C5.64416 17.7813 5.46997 17.7203 5.32422 17.6143C5.17848 17.5082 5.06678 17.3613 5.00391 17.1924C4.94123 17.0237 4.92988 16.8403 4.9707 16.665V16.6641L6.02441 12.0898L6.06934 11.8955L5.91895 11.7646L2.39551 8.68457L2.39355 8.68359L2.29785 8.58789C2.21034 8.48639 2.1458 8.36643 2.10938 8.23633C2.06078 8.06248 2.06438 7.87774 2.12012 7.70605C2.17586 7.53437 2.28141 7.38265 2.42285 7.27051C2.56413 7.15859 2.73544 7.09135 2.91504 7.07617H2.91602L7.56152 6.67383L7.7627 6.65625L7.83984 6.46973L9.65332 2.14551V2.14453C9.72268 1.9783 9.84034 1.83621 9.99023 1.73633C10.1401 1.63656 10.3161 1.58301 10.4961 1.58301Z" stroke="black" stroke-width="0.666667"/>
</svg>
