<svg width="28" height="23" viewBox="0 0 28 23" fill="none" xmlns="http://www.w3.org/2000/svg">
<path d="M1 22.0504C2.99525 20.8984 5.25858 20.292 7.5625 20.292C9.86642 20.292 12.1297 20.8984 14.125 22.0504C16.1203 20.8984 18.3836 20.292 20.6875 20.292C22.9914 20.292 25.2547 20.8984 27.25 22.0504" stroke="#2C2C2C" stroke-linecap="round" stroke-linejoin="round"/>
<path d="M1 3.09142C2.99525 1.93947 5.25858 1.33301 7.5625 1.33301C9.86642 1.33301 12.1297 1.93947 14.125 3.09142C16.1203 1.93947 18.3836 1.33301 20.6875 1.33301C22.9914 1.33301 25.2547 1.93947 27.25 3.09142" stroke="#2C2C2C" stroke-linecap="round" stroke-linejoin="round"/>
<path d="M18.8975 7.86488C18.8975 8.49778 19.1489 9.10476 19.5964 9.55229C20.0439 9.99982 20.6509 10.2512 21.2838 10.2512C21.9167 10.2512 22.5237 9.99982 22.9712 9.55229C23.4188 9.10476 23.6702 8.49778 23.6702 7.86488C23.6702 7.23198 23.4188 6.625 22.9712 6.17747C22.5237 5.72994 21.9167 5.47852 21.2838 5.47852C20.6509 5.47852 20.0439 5.72994 19.5964 6.17747C19.1489 6.625 18.8975 7.23198 18.8975 7.86488Z" stroke="#2C2C2C" stroke-linecap="round" stroke-linejoin="round"/>
<path d="M17.3066 20.5922V15.2892C17.3066 14.586 17.586 13.9116 18.0833 13.4143C18.5805 12.9171 19.2549 12.6377 19.9582 12.6377H22.6097C23.3129 12.6377 23.9873 12.9171 24.4846 13.4143C24.9818 13.9116 25.2612 14.586 25.2612 15.2892V20.5922" stroke="#2C2C2C" stroke-linecap="round" stroke-linejoin="round"/>
<path d="M1 3.0918V22.0501" stroke="#2C2C2C" stroke-linecap="round" stroke-linejoin="round"/>
<path d="M14.125 3.0918V22.0501" stroke="#2C2C2C" stroke-linecap="round" stroke-linejoin="round"/>
<path d="M27.25 3.0918V22.0501" stroke="#2C2C2C" stroke-linecap="round" stroke-linejoin="round"/>
</svg>
