<svg width="61" height="60" viewBox="0 0 61 60" fill="none" xmlns="http://www.w3.org/2000/svg">
<path d="M60.9275 30.0011C60.9275 45.1529 49.6993 57.6793 35.113 59.712C33.7491 59.9012 32.3538 60 30.9374 60C29.3024 60 27.6969 59.8697 26.1334 59.6174C11.8539 57.3177 0.947266 44.9322 0.947266 30.0011C0.947266 13.4324 14.3757 0 30.9395 0C47.5033 0 60.9317 13.4324 60.9317 30.0011H60.9275Z" fill="#1C1C1B"/>
<path d="M13.1106 13.2305L26.9425 31.7289L13.0244 46.7693H16.1577L28.3442 33.6018L38.1896 46.7693H48.8503L34.2409 27.2304L47.1965 13.2305H44.0632L32.8413 25.3574L23.7735 13.2305H13.1127H13.1106ZM17.717 15.5386H22.6134L44.2397 44.4612H39.3433L17.717 15.5386Z" fill="white"/>
</svg>
