<svg width="93" height="31" viewBox="0 0 93 31" fill="none" xmlns="http://www.w3.org/2000/svg">
<path fill-rule="evenodd" clip-rule="evenodd" d="M23.251 30.1069H15.2024L9.16697 7.08132C8.8805 6.02215 8.27225 5.08578 7.37753 4.64445C5.14465 3.53539 2.68416 2.65274 0 2.20758V1.3211H12.9656C14.755 1.3211 16.0971 2.65274 16.3208 4.19929L19.4523 20.8084L27.497 1.3211H35.3219L23.251 30.1069ZM39.7955 30.1069H32.1943L38.4534 1.3211H46.0546L39.7955 30.1069ZM55.8887 9.29565C56.1124 7.74526 57.4545 6.85878 59.0202 6.85878C61.4807 6.6362 64.1609 7.08136 66.3978 8.18658L67.7398 1.98887C65.503 1.10239 63.0425 0.657227 60.8097 0.657227C53.4321 0.657227 48.0638 4.64449 48.0638 10.1783C48.0638 14.3881 51.8664 16.5986 54.5505 17.9302C57.4545 19.258 58.5729 20.1445 58.3492 21.4723C58.3492 23.464 56.1124 24.3505 53.8795 24.3505C51.1953 24.3505 48.5112 23.6866 46.0546 22.5776L44.7125 28.7791C47.3967 29.8843 50.3006 30.3295 52.9848 30.3295C61.257 30.5482 66.3978 26.5648 66.3978 20.5858C66.3978 13.0565 55.8887 12.6152 55.8887 9.29565ZM93 30.1069L86.9645 1.3211H80.4817C79.1397 1.3211 77.7976 2.20758 77.3502 3.53539L66.174 30.1069H73.9989L75.5608 25.9009H85.1751L86.0698 30.1069H93ZM81.6001 9.07302L83.833 19.9219H77.5739L81.6001 9.07302Z" fill="#A37C4D"/>
</svg>
