<svg width="21" height="16" viewBox="0 0 21 16" fill="none" xmlns="http://www.w3.org/2000/svg">
<path d="M10.4992 15.1754H10.4936C9.85995 15.1711 4.25812 15.12 2.67102 14.6908C1.56184 14.3926 0.686278 13.518 0.387275 12.4087C-0.0280082 10.8495 -0.00155311 7.84792 0.00131798 7.60819C-0.00138905 7.36964 -0.0281722 4.34314 0.386044 2.77122C0.386454 2.76978 0.386824 2.76818 0.387275 2.76675C0.682874 1.67007 1.5782 0.768345 2.66832 0.469383C2.67102 0.468562 2.67389 0.467947 2.67664 0.467168C4.24582 0.0547969 9.85868 0.00430664 10.4936 0H10.505C11.1403 0.00430664 16.757 0.0554531 18.3295 0.485297C19.4358 0.78266 20.3108 1.65617 20.6105 2.76408C21.0414 4.33707 21.0015 7.37013 20.9972 7.62619C21.0002 7.87836 21.0253 10.8531 20.6124 12.42C20.6121 12.4217 20.6117 12.4231 20.6113 12.4245C20.3122 13.5339 19.4368 14.4085 18.3263 14.707C18.3249 14.7075 18.3233 14.7078 18.3218 14.7083C16.7528 15.1205 11.1398 15.1709 10.505 15.1754H10.4993H10.4992ZM1.97183 3.192C1.6072 4.57947 1.64165 7.56738 1.64194 7.59748V7.61914C1.63107 8.44778 1.66934 10.8475 1.97199 11.9841C2.11875 12.5284 2.55056 12.9595 3.09816 13.1067C4.26916 13.4235 8.83173 13.5231 10.4992 13.5348C12.1711 13.5231 16.7404 13.4262 17.9027 13.1221C18.4486 12.9744 18.8789 12.5447 19.0266 11.9998C19.3296 10.8465 19.3676 8.45848 19.3565 7.63514C19.3565 7.62652 19.3565 7.61783 19.3567 7.60921C19.3718 6.77061 19.3421 4.34285 19.0281 3.19717C19.0277 3.19605 19.0275 3.19491 19.0273 3.19376C18.8799 2.64711 18.4479 2.21595 17.9003 2.0687C16.7406 1.75165 12.1708 1.65231 10.4992 1.64062C8.82849 1.65231 4.26374 1.74911 3.09783 2.05283C2.56065 2.20188 2.11908 2.64838 1.97183 3.192ZM8.40824 10.9098V4.26546L14.1504 7.58772L8.40824 10.9098Z" fill="black"/>
</svg>
